# xmcd
#
# Track frame offsets:
#	183
#	13358
#	26200
#	36118
#	46405
#	59768
#	72773
#	85175
#	98033
#	111788
#	124873
#	139428
#	151018
#	162775
#	176805
#	188925
#	202553
#	217618
#	232105
#	242925
#	256138
#	267698
#	280260
#	293868
#
# Disc length: 4089 seconds
# Revision: 1
# Processed by: cddbd v1.5.2PL0 Copyright (c) Steve Scherf et al.
# Submitted via: dBpowerAMP V12.0
#
DISCID=640ff718
DTITLE=Howlin' Wolf - I'm The Wolf
DYEAR=1991
DGENRE=Blues
TTITLE0=I've Got a Woman
TTITLE1=Just My Kind
TTITLE2=Work for Your Money
TTITLE3=All Night Boogie
TTITLE4=I Love My Baby
TTITLE5=No Place to Go (You Gonna Wreck My Life)
TTITLE6=Neighbors
TTITLE7=I'm the Wolf
TTITLE8=Rocking Daddy
TTITLE9=Baby How Long
TTITLE10=I'll Be Around
TTITLE11=Who Will Be Next
TTITLE12=I Have a Little Girl
TTITLE13=You Can't Be Beat
TTITLE14=Goin' Back Home
TTITLE15=My Life
TTITLE16=You Ought to Know
TTITLE17=Tell Me
TTITLE18=Somebody in My Home
TTITLE19=Nature
TTITLE20=Poor Boy
TTITLE21=My Baby Told Me
TTITLE22=Little Baby
TTITLE23=I Ain't Superstitious
EXTD=
EXTT0=
EXTT1=
EXTT2=
EXTT3=
EXTT4=
EXTT5=
EXTT6=
EXTT7=
EXTT8=
EXTT9=
EXTT10=
EXTT11=
EXTT12=
EXTT13=
EXTT14=
EXTT15=
EXTT16=
EXTT17=
EXTT18=
EXTT19=
EXTT20=
EXTT21=
EXTT22=
EXTT23=
PLAYORDER=
